<svg width="33" height="29" viewBox="0 0 33 29" fill="none" xmlns="http://www.w3.org/2000/svg">
<mask id="path-1-inside-1_2520_9019" fill="white">
<path d="M25.7488 19.3248H22.5988V22.4748H25.7488M25.7488 13.0248H22.5988V16.1748H25.7488M28.8988 25.6248H16.2988V22.4748H19.4488V19.3248H16.2988V16.1748H19.4488V13.0248H16.2988V9.87481H28.8988M13.1488 6.7248H9.99883V3.5748H13.1488M13.1488 13.0248H9.99883V9.87481H13.1488M13.1488 19.3248H9.99883V16.1748H13.1488M13.1488 25.6248H9.99883V22.4748H13.1488M6.84883 6.7248H3.69883V3.5748H6.84883M6.84883 13.0248H3.69883V9.87481H6.84883M6.84883 19.3248H3.69883V16.1748H6.84883M6.84883 25.6248H3.69883V22.4748H6.84883M16.2988 6.7248V0.424805H0.548828V28.7748H32.0488V6.7248H16.2988Z"/>
</mask>
<path d="M22.5988 19.3248V18.3248H21.5988V19.3248H22.5988ZM22.5988 22.4748H21.5988V23.4748H22.5988V22.4748ZM22.5988 13.0248V12.0248H21.5988V13.0248H22.5988ZM22.5988 16.1748H21.5988V17.1748H22.5988V16.1748ZM16.2988 25.6248H15.2988V26.6248H16.2988V25.6248ZM16.2988 22.4748V21.4748H15.2988V22.4748H16.2988ZM19.4488 22.4748V23.4748H20.4488V22.4748H19.4488ZM19.4488 19.3248H20.4488V18.3248H19.4488V19.3248ZM16.2988 19.3248H15.2988V20.3248H16.2988V19.3248ZM16.2988 16.1748V15.1748H15.2988V16.1748H16.2988ZM19.4488 16.1748V17.1748H20.4488V16.1748H19.4488ZM19.4488 13.0248H20.4488V12.0248H19.4488V13.0248ZM16.2988 13.0248H15.2988V14.0248H16.2988V13.0248ZM16.2988 9.87481V8.87481H15.2988V9.87481H16.2988ZM9.99883 6.7248H8.99883V7.7248H9.99883V6.7248ZM9.99883 3.5748V2.5748H8.99883V3.5748H9.99883ZM9.99883 13.0248H8.99883V14.0248H9.99883V13.0248ZM9.99883 9.87481V8.87481H8.99883V9.87481H9.99883ZM9.99883 19.3248H8.99883V20.3248H9.99883V19.3248ZM9.99883 16.1748V15.1748H8.99883V16.1748H9.99883ZM9.99883 25.6248H8.99883V26.6248H9.99883V25.6248ZM9.99883 22.4748V21.4748H8.99883V22.4748H9.99883ZM3.69883 6.7248H2.69883V7.7248H3.69883V6.7248ZM3.69883 3.5748V2.5748H2.69883V3.5748H3.69883ZM3.69883 13.0248H2.69883V14.0248H3.69883V13.0248ZM3.69883 9.87481V8.87481H2.69883V9.87481H3.69883ZM3.69883 19.3248H2.69883V20.3248H3.69883V19.3248ZM3.69883 16.1748V15.1748H2.69883V16.1748H3.69883ZM3.69883 25.6248H2.69883V26.6248H3.69883V25.6248ZM3.69883 22.4748V21.4748H2.69883V22.4748H3.69883ZM16.2988 6.7248H15.2988V7.7248H16.2988V6.7248ZM16.2988 0.424805H17.2988V-0.575195H16.2988V0.424805ZM0.548828 0.424805V-0.575195H-0.451172V0.424805H0.548828ZM0.548828 28.7748H-0.451172V29.7748H0.548828V28.7748ZM32.0488 28.7748V29.7748H33.0488V28.7748H32.0488ZM32.0488 6.7248H33.0488V5.7248H32.0488V6.7248ZM25.7488 18.3248H22.5988V20.3248H25.7488V18.3248ZM21.5988 19.3248V22.4748H23.5988V19.3248H21.5988ZM22.5988 23.4748H25.7488V21.4748H22.5988V23.4748ZM25.7488 12.0248H22.5988V14.0248H25.7488V12.0248ZM21.5988 13.0248V16.1748H23.5988V13.0248H21.5988ZM22.5988 17.1748H25.7488V15.1748H22.5988V17.1748ZM28.8988 24.6248H16.2988V26.6248H28.8988V24.6248ZM17.2988 25.6248V22.4748H15.2988V25.6248H17.2988ZM16.2988 23.4748H19.4488V21.4748H16.2988V23.4748ZM20.4488 22.4748V19.3248H18.4488V22.4748H20.4488ZM19.4488 18.3248H16.2988V20.3248H19.4488V18.3248ZM17.2988 19.3248V16.1748H15.2988V19.3248H17.2988ZM16.2988 17.1748H19.4488V15.1748H16.2988V17.1748ZM20.4488 16.1748V13.0248H18.4488V16.1748H20.4488ZM19.4488 12.0248H16.2988V14.0248H19.4488V12.0248ZM17.2988 13.0248V9.87481H15.2988V13.0248H17.2988ZM16.2988 10.8748H28.8988V8.87481H16.2988V10.8748ZM13.1488 5.7248H9.99883V7.7248H13.1488V5.7248ZM10.9988 6.7248V3.5748H8.99883V6.7248H10.9988ZM9.99883 4.5748H13.1488V2.5748H9.99883V4.5748ZM13.1488 12.0248H9.99883V14.0248H13.1488V12.0248ZM10.9988 13.0248V9.87481H8.99883V13.0248H10.9988ZM9.99883 10.8748H13.1488V8.87481H9.99883V10.8748ZM13.1488 18.3248H9.99883V20.3248H13.1488V18.3248ZM10.9988 19.3248V16.1748H8.99883V19.3248H10.9988ZM9.99883 17.1748H13.1488V15.1748H9.99883V17.1748ZM13.1488 24.6248H9.99883V26.6248H13.1488V24.6248ZM10.9988 25.6248V22.4748H8.99883V25.6248H10.9988ZM9.99883 23.4748H13.1488V21.4748H9.99883V23.4748ZM6.84883 5.7248H3.69883V7.7248H6.84883V5.7248ZM4.69883 6.7248V3.5748H2.69883V6.7248H4.69883ZM3.69883 4.5748H6.84883V2.5748H3.69883V4.5748ZM6.84883 12.0248H3.69883V14.0248H6.84883V12.0248ZM4.69883 13.0248V9.87481H2.69883V13.0248H4.69883ZM3.69883 10.8748H6.84883V8.87481H3.69883V10.8748ZM6.84883 18.3248H3.69883V20.3248H6.84883V18.3248ZM4.69883 19.3248V16.1748H2.69883V19.3248H4.69883ZM3.69883 17.1748H6.84883V15.1748H3.69883V17.1748ZM6.84883 24.6248H3.69883V26.6248H6.84883V24.6248ZM4.69883 25.6248V22.4748H2.69883V25.6248H4.69883ZM3.69883 23.4748H6.84883V21.4748H3.69883V23.4748ZM17.2988 6.7248V0.424805H15.2988V6.7248H17.2988ZM16.2988 -0.575195H0.548828V1.4248H16.2988V-0.575195ZM-0.451172 0.424805V28.7748H1.54883V0.424805H-0.451172ZM0.548828 29.7748H32.0488V27.7748H0.548828V29.7748ZM33.0488 28.7748V6.7248H31.0488V28.7748H33.0488ZM32.0488 5.7248H16.2988V7.7248H32.0488V5.7248Z" fill="#00C797" mask="url(#path-1-inside-1_2520_9019)"/>
</svg>
