<svg width="33" height="29" viewBox="0 0 27 31" fill="none" xmlns="http://www.w3.org/2000/svg">
<path d="M13.2998 17.1743C17.649 17.1743 21.1748 13.6486 21.1748 9.29932C21.1748 4.95007 17.649 1.42432 13.2998 1.42432C8.95056 1.42432 5.4248 4.95007 5.4248 9.29932C5.4248 13.6486 8.95056 17.1743 13.2998 17.1743Z" stroke="#FF439D" stroke-linecap="round" stroke-linejoin="round"/>
<path d="M25.9002 29.7743C25.9002 26.4326 24.5727 23.2277 22.2097 20.8648C19.8468 18.5018 16.6419 17.1743 13.3002 17.1743C9.95847 17.1743 6.75361 18.5018 4.39065 20.8648C2.02769 23.2277 0.700195 26.4326 0.700195 29.7743" stroke="#FF439D" stroke-linecap="round" stroke-linejoin="round"/>
<path d="M13.3002 17.1743C9.95847 17.1743 6.75361 18.5018 4.39065 20.8648C2.02769 23.2277 0.700195 26.4326 0.700195 29.7743H25.9002C25.9002 26.4326 24.5727 23.2277 22.2097 20.8648C19.8468 18.5018 16.6419 17.1743 13.3002 17.1743Z" stroke="#FF439D" stroke-linecap="round" stroke-linejoin="round"/>
</svg>
